# This file uses centimeters as units for non-parametric coordinates.

mtllib tBarrier.mtl
g default
v -0.399905 0.000000 -2.000000
v -0.153406 0.454614 -2.000000
v -0.399905 0.159106 -2.000000
v -0.110748 1.456256 -2.000000
v 0.153405 0.454614 -2.000000
v -0.399900 -0.000002 2.000000
v -0.153404 0.454612 2.000000
v -0.399900 0.159104 2.000000
v -0.110748 1.456255 2.000000
v 0.399905 -0.000000 -2.000000
v 0.399905 0.159106 -2.000000
v 0.110748 1.456256 -2.000000
v 0.153403 0.454612 2.000000
v 0.399900 0.159104 2.000000
v 0.399900 -0.000002 2.000000
v 0.110748 1.456255 2.000000
v 0.110748 1.456256 1.216332
v 0.153404 0.454613 1.216332
v 0.399903 0.159105 0.925476
v 0.399902 -0.000001 0.925475
v -0.399902 -0.000001 0.925475
v -0.399903 0.159105 0.925476
v -0.153405 0.454613 0.925475
v -0.110748 1.456256 1.216332
v 0.110748 1.301593 0.925476
v -0.110748 1.301593 0.925476
v 0.110748 1.456256 0.504796
v -0.110748 1.456256 0.504796
vt 0.012812 0.340073
vt 0.966404 0.930161
vt 0.567906 0.309859
vt 0.567953 0.340073
vt 0.771954 0.309859
vt 0.772002 0.340073
vt 0.568066 0.413149
vt 0.012812 0.413149
vt 0.772426 0.603528
vt 0.772276 0.038795
vt 0.216735 0.038795
vt 0.782660 0.258075
vt 0.161378 0.111871
vt 0.012224 0.038795
vt 0.216336 0.273269
vt 0.012224 0.302250
vt 0.161038 0.302250
vt 0.488463 0.603528
vt 0.568315 0.574521
vt 0.296186 0.302250
vt 0.623611 0.603528
vt 0.966404 0.258075
vt 0.966403 0.011218
vt 0.216786 0.008581
vt 0.012224 0.008581
vt 0.782660 0.011218
vt 0.012224 0.111871
vt 0.771837 0.302250
vt 0.782659 0.930161
vt 0.772326 0.008581
vt 0.012812 0.309859
vt 0.012812 0.603528
vt 0.772154 0.111871
vt 0.772118 0.413149
vt 0.386918 0.939399
vt 0.968667 0.939399
vt 0.968667 0.992431
vt 0.386917 0.992431
vt 0.289213 0.992431
vt 0.289214 0.939399
vt 0.221661 0.939399
vt 0.221660 0.992431
vt 0.039651 0.992431
vt 0.252459 0.682128
vt 0.058839 0.670917
vt 0.198147 0.746457
vt 0.198147 0.841258
vt 0.107594 0.670918
vt 0.058839 0.916793
vt 0.107594 0.916794
vt 0.556846 0.760551
vt 0.577677 0.665791
vt 0.733521 0.620900
vt 0.679496 0.866668
vt 0.684787 0.610185
vt 0.630762 0.855954
vt 0.505082 0.828187
vt 0.505082 0.760314
vt 0.039650 0.939399
vt 0.267835 0.612189
vn -0.000000 0.000000 -1.000000
vn -0.000000 0.000000 -1.000000
vn 0.000000 0.000000 -1.000000
vn -0.000006 0.000002 -1.000000
vn -0.879090 0.476655 0.000001
vn -0.879091 0.476655 0.000001
vn -0.964435 0.264319 0.000058
vn -0.973802 0.227399 0.000000
vn -1.000000 -0.000000 0.000001
vn -1.000000 -0.000000 0.000001
vn -0.999085 0.042756 0.000493
vn -0.999094 0.042549 0.000000
vn -0.000000 -0.000000 1.000000
vn -0.000000 -0.000000 1.000000
vn -0.000001 0.000000 1.000000
vn -0.000003 0.000000 1.000000
vn 0.000000 0.538297 0.842755
vn 0.000000 0.538297 0.842755
vn 0.000000 0.000000 -1.000000
vn 0.000006 0.000002 -1.000000
vn 0.875715 0.482829 0.000001
vn 0.973916 0.226909 0.000000
vn 0.969964 0.243249 -0.000025
vn 0.865470 0.500961 0.000001
vn 1.000000 -0.000000 0.000001
vn 1.000000 -0.000000 0.000001
vn 0.000000 -1.000000 -0.000001
vn 0.000000 -1.000000 -0.000001
vn 0.000000 -1.000000 -0.000000
vn 0.000000 -1.000000 -0.000000
vn 0.000000 0.998605 0.052794
vn 0.000000 1.000000 0.000000
vn 0.000000 1.000000 0.000000
vn 0.000000 0.998605 0.052794
vn 0.999094 0.042548 0.000000
vn 0.999085 0.042769 0.000312
vn 0.970664 0.240440 0.000001
vn 0.999091 0.042547 -0.002565
vn 0.999094 0.042547 0.000001
vn 0.889372 0.457184 0.000002
vn 1.000000 -0.000000 0.000002
vn 0.000000 -1.000000 -0.000001
vn 0.000000 -1.000000 -0.000001
vn -1.000000 -0.000000 0.000002
vn -0.879091 0.476653 0.000002
vn -0.971507 0.237009 0.000001
vn -0.999094 0.042548 0.000001
vn -0.999075 0.042967 -0.001446
vn 0.000000 0.989799 -0.142467
vn 0.000000 0.989799 -0.142467
vn 0.998680 0.051281 0.002867
vn -0.998734 0.050300 -0.000753
vn 0.000000 1.000000 0.000000
vn 0.000000 1.000000 0.000000
vn -0.000001 0.000000 1.000000
vn 0.000000 -0.000001 1.000000
vn 0.000000 0.000000 -1.000000
vn 0.000000 0.000000 -1.000000
vn 0.000000 0.000000 -1.000000
vn 0.000000 0.000000 -1.000000
s 1
g pPlane7
usemtl blinn10SG
f 1/45/1 2/46/2 5/47/3
f 2/46/2 1/45/1 3/48/4
s 2
f 3/1/5 22/4/6 23/7/7 2/8/8
f 3/1/5 1/31/9 21/3/10 22/4/6
f 2/8/8 23/7/7 28/18/11 4/32/12
s 3
f 13/51/13 7/52/14 15/54/15
f 13/51/13 15/54/15 14/56/16
f 9/60/17 7/52/14 13/51/13 16/44/18
s 1
f 10/49/19 5/47/3 11/50/20
s 4
f 11/10/21 5/33/22 18/13/23 19/11/24
f 11/10/21 19/11/24 20/24/25 10/30/26
s 5
f 20/12/27 21/22/28 1/2/29 10/29/30
s 3
f 27/35/31 12/36/32 4/37/33 28/38/34
s 4
f 5/33/22 12/28/35 27/20/36 18/13/23
f 13/27/37 18/13/23 17/17/38 16/16/39
f 14/14/40 19/11/24 18/13/23 13/27/37
f 15/25/41 20/24/25 19/11/24 14/14/40
s 5
f 6/23/42 21/22/28 20/12/27 15/26/43
s 2
f 22/4/6 21/3/10 6/5/44 8/6/45
f 8/6/45 7/34/46 23/7/7 22/4/6
f 7/34/46 9/9/47 24/21/48 23/7/7
s 3
f 9/43/17 16/59/18 17/41/49 24/42/50
s 4
f 18/13/23 25/15/51 17/17/38
s 2
f 23/7/7 24/21/48 26/19/52
s 3
f 17/41/49 25/40/53 26/39/54 24/42/50
s 4
f 18/13/23 27/20/36 25/15/51
s 2
f 23/7/7 26/19/52 28/18/11
s 3
f 26/39/54 25/40/53 27/35/31 28/38/34
s 1
f 1/45/1 5/47/3 10/49/19
s 3
f 6/53/55 7/52/14 8/55/56
s off
f 5/47/57 2/46/58 4/58/59 12/57/60
s 3
f 15/54/15 7/52/14 6/53/55
